<svg width="32" height="32" viewBox="0 0 32 32" fill="none" xmlns="http://www.w3.org/2000/svg">
<path d="M21.3333 11.6665C20.7867 11.6665 20.3333 11.2132 20.3333 10.6665V5.99984C20.3333 4.55984 19.44 3.6665 18 3.6665H14C12.56 3.6665 11.6667 4.55984 11.6667 5.99984V10.6665C11.6667 11.2132 11.2133 11.6665 10.6667 11.6665C10.12 11.6665 9.66667 11.2132 9.66667 10.6665V5.99984C9.66667 3.45317 11.4533 1.6665 14 1.6665H18C20.5467 1.6665 22.3333 3.45317 22.3333 5.99984V10.6665C22.3333 11.2132 21.88 11.6665 21.3333 11.6665Z" fill="#CDCDCD"/>
<path d="M10.6667 23.7065C10.12 23.7065 9.66667 23.2532 9.66667 22.7065C9.66667 22.1465 10.12 21.7065 10.6667 21.7065H26.3467C26.7467 21.7065 27.0533 21.3598 27.0133 20.9598L26.1067 13.3732C25.7867 10.7865 25.3333 8.6665 20.8 8.6665H11.2C6.66667 8.6665 6.21333 10.7865 5.90667 13.3732L4.70667 23.3732C4.32 26.6532 5.33333 29.3332 10.0133 29.3332H21.9867C26.2 29.3332 27.44 27.1598 27.3733 24.3332C27.36 23.9732 27.0667 23.7065 26.7067 23.7065H10.6667Z" fill="#CDCDCD"/>
</svg>
